<svg xmlns="http://www.w3.org/2000/svg" width="1600" height="900" viewBox="0 0 1600 900" fill="none">
  <defs>
    <linearGradient id="bg" x1="120" y1="40" x2="1480" y2="860" gradientUnits="userSpaceOnUse">
      <stop offset="0%" stop-color="#0F172A"/>
      <stop offset="100%" stop-color="#1D4ED8"/>
    </linearGradient>
    <pattern id="grid" width="36" height="36" patternUnits="userSpaceOnUse">
      <path d="M 36 0 L 0 0 0 36" fill="none" stroke="#FFFFFF" stroke-opacity="0.05" stroke-width="1"/>
    </pattern>
  </defs>
  <rect width="1600" height="900" fill="url(#bg)"/>
  <rect width="1600" height="900" fill="url(#grid)"/>
  <rect x="62" y="54" width="1476" height="792" rx="36" fill="#020617" fill-opacity="0.22" stroke="#FFFFFF" stroke-opacity="0.10"/>
  <rect x="70" y="62" width="12" height="776" rx="6" fill="#F59E0B"/>
  <text x="96" y="92" fill="#F8FAFC" font-size="44" font-weight="700" text-anchor="start" font-family="Arial, sans-serif"><tspan x="96" dy="0">Math Without Losing Courage</tspan></text>
  <text x="96" y="146" fill="#93C5FD" font-size="22" font-weight="500" text-anchor="start" font-family="Arial, sans-serif"><tspan x="96" dy="0">formula-to-meaning-to-code flow</tspan></text>
  <text x="1388" y="108" fill="#93C5FD" font-size="30" text-anchor="end" font-family="Arial, sans-serif">Chapter 02</text>
  <rect x="1000" y="156" width="500" height="170" rx="26" fill="#0B1220" stroke="#FFFFFF" stroke-opacity="0.10"/>
  <text x="1036" y="190" fill="#93C5FD" font-size="18" letter-spacing="2" font-family="Arial, sans-serif">ANCHOR CASE</text>
  <text x="1036" y="212" fill="#F8FAFC" font-size="26" font-weight="600" text-anchor="start" font-family="Arial, sans-serif"><tspan x="1036" dy="0">Case: delivery-time</tspan><tspan x="1036" dy="32">prediction and the gradient</tspan><tspan x="1036" dy="32">update behind a simple</tspan><tspan x="1036" dy="32">model</tspan></text>
  <rect x="1000" y="348" width="500" height="170" rx="26" fill="#111C33" stroke="#FFFFFF" stroke-opacity="0.10"/>
  <text x="1036" y="382" fill="#93C5FD" font-size="18" letter-spacing="2" font-family="Arial, sans-serif">MAIN SKILL OR HARNESS</text>
  <text x="1036" y="394" fill="#F8FAFC" font-size="24" font-weight="600" text-anchor="start" font-family="Arial, sans-serif"><tspan x="1036" dy="0">Skill: ML Math Translator</tspan></text>
  <rect x="1000" y="540" width="500" height="238" rx="26" fill="#0B1220" stroke="#FFFFFF" stroke-opacity="0.10"/>
  <text x="1036" y="574" fill="#93C5FD" font-size="18" letter-spacing="2" font-family="Arial, sans-serif">VIEWER TAKEAWAY</text>
  <text x="1036" y="592" fill="#F8FAFC" font-size="24" font-weight="600" text-anchor="start" font-family="Arial, sans-serif"><tspan x="1036" dy="0">Takeaway: math becomes</tspan><tspan x="1036" dy="30">usable when every symbol is</tspan><tspan x="1036" dy="30">tied to shape, operation,</tspan><tspan x="1036" dy="30">and code</tspan></text>
  <rect x="96" y="182" width="850" height="106" rx="24" fill="#0B1220" stroke="#FFFFFF" stroke-opacity="0.10"/><circle cx="146" cy="235" r="22" fill="#F59E0B" fill-opacity="0.92"/><text x="146" y="243" fill="#08111F" font-size="24" font-weight="700" text-anchor="middle" font-family="Arial, sans-serif"><tspan x="146" dy="0">1</tspan></text><text x="188" y="224" fill="#F8FAFC" font-size="28" font-weight="600" text-anchor="start" font-family="Arial, sans-serif"><tspan x="188" dy="0">Open with why ML notation scares beginners.</tspan></text><rect x="96" y="306" width="850" height="106" rx="24" fill="#111C33" stroke="#FFFFFF" stroke-opacity="0.10"/><circle cx="146" cy="359" r="22" fill="#F59E0B" fill-opacity="0.92"/><text x="146" y="367" fill="#08111F" font-size="24" font-weight="700" text-anchor="middle" font-family="Arial, sans-serif"><tspan x="146" dy="0">2</tspan></text><text x="188" y="348" fill="#F8FAFC" font-size="28" font-weight="600" text-anchor="start" font-family="Arial, sans-serif"><tspan x="188" dy="0">Reframe vectors, matrices, gradients, and</tspan><tspan x="188" dy="34">loss as operational language.</tspan></text><rect x="96" y="430" width="850" height="106" rx="24" fill="#0B1220" stroke="#FFFFFF" stroke-opacity="0.10"/><circle cx="146" cy="483" r="22" fill="#F59E0B" fill-opacity="0.92"/><text x="146" y="491" fill="#08111F" font-size="24" font-weight="700" text-anchor="middle" font-family="Arial, sans-serif"><tspan x="146" dy="0">3</tspan></text><text x="188" y="472" fill="#F8FAFC" font-size="28" font-weight="600" text-anchor="start" font-family="Arial, sans-serif"><tspan x="188" dy="0">Translate one real update rule step by</tspan><tspan x="188" dy="34">step.</tspan></text><rect x="96" y="554" width="850" height="106" rx="24" fill="#111C33" stroke="#FFFFFF" stroke-opacity="0.10"/><circle cx="146" cy="607" r="22" fill="#F59E0B" fill-opacity="0.92"/><text x="146" y="615" fill="#08111F" font-size="24" font-weight="700" text-anchor="middle" font-family="Arial, sans-serif"><tspan x="146" dy="0">4</tspan></text><text x="188" y="596" fill="#F8FAFC" font-size="28" font-weight="600" text-anchor="start" font-family="Arial, sans-serif"><tspan x="188" dy="0">Connect the formula to a small code view.</tspan></text><rect x="96" y="678" width="850" height="106" rx="24" fill="#0B1220" stroke="#FFFFFF" stroke-opacity="0.10"/><circle cx="146" cy="731" r="22" fill="#F59E0B" fill-opacity="0.92"/><text x="146" y="739" fill="#08111F" font-size="24" font-weight="700" text-anchor="middle" font-family="Arial, sans-serif"><tspan x="146" dy="0">5</tspan></text><text x="188" y="720" fill="#F8FAFC" font-size="28" font-weight="600" text-anchor="start" font-family="Arial, sans-serif"><tspan x="188" dy="0">End by showing how the Math Translator</tspan><tspan x="188" dy="34">skill forces reusable understanding.</tspan></text>
  <path d="M 522 290 C 522 304, 522 312, 522 316" stroke="#F59E0B" stroke-width="4" stroke-linecap="round"/><path d="M 522 316 L 514 306 L 530 306 Z" fill="#F59E0B"/><path d="M 522 414 C 522 428, 522 436, 522 440" stroke="#F59E0B" stroke-width="4" stroke-linecap="round"/><path d="M 522 440 L 514 430 L 530 430 Z" fill="#F59E0B"/><path d="M 522 538 C 522 552, 522 560, 522 564" stroke="#F59E0B" stroke-width="4" stroke-linecap="round"/><path d="M 522 564 L 514 554 L 530 554 Z" fill="#F59E0B"/><path d="M 522 662 C 522 676, 522 684, 522 688" stroke="#F59E0B" stroke-width="4" stroke-linecap="round"/><path d="M 522 688 L 514 678 L 530 678 Z" fill="#F59E0B"/>
</svg>
